PathFileType	4	(X/Y/Z)	./resultDataOpenSim/trcMotMarkerGrf/sub06/qtm-14-08.trc
DataRate	CameraRate	NumFrames	NumMarkers	Units	OrigDataRate	OrigDataStartFrame	OrigNumFrames
250.000000	250.000000	12	24	m	250.000000	396	527
Frame#	Time	L.Toe.Tip			R.Toe.Tip			L.Ankle.Lat			R.Ankle.Lat			L.Ankle.Med			R.Ankle.Med			L.Heel			R.Heel			L.Knee.Lat			R.Knee.Lat			L.Knee.Med			R.Knee.Med			L.Thigh.Upper			R.Thigh.Upper			L.ASIS			R.ASIS			V.Sacral			L.Acromium			R.Acromium			C7			L.Elbow			R.Elbow			L.Wrist.Lat			R.Wrist.Lat
		X1	Y1	Z1	X2	Y2	Z2	X3	Y3	Z3	X4	Y4	Z4	X5	Y5	Z5	X6	Y6	Z6	X7	Y7	Z7	X8	Y8	Z8	X9	Y9	Z9	X10	Y10	Z10	X11	Y11	Z11	X12	Y12	Z12	X13	Y13	Z13	X14	Y14	Z14	X15	Y15	Z15	X16	Y16	Z16	X17	Y17	Z17	X18	Y18	Z18	X19	Y19	Z19	X20	Y20	Z20	X21	Y21	Z21	X22	Y22	Z22	X23	Y23	Z23	X24	Y24	Z24

396	1.58	1.4861986	0.10238797	-0.11795236	0.91169731	0.034945453	0.051771599	1.3575159	0.10949834	-0.13710615	0.78604618	0.086813271	0.080606539	1.3576034	0.1229615	-0.05295283	0.80965115	0.10758863	-0.0049518156	1.2933766	0.062637422	-0.092320707	0.72738094	0.080975035	0.022241374	1.3232777	0.48326003	-0.12925264	0.95819151	0.43981459	0.11498912	1.3112263	0.47137955	-0.0093450475	0.93452264	0.44213244	-0.015254129	1.1199556	0.81804806	-0.16553567	1.0326103	0.79435185	0.17172018	1.175147	0.86253995	-0.10473395	1.1435502	0.84878445	0.14083615	0.9749809	0.92727591	-0.0062199357	1.0865857	1.3374058	-0.16993273	1.0963216	1.3289387	0.18754353	1.0156853	1.3671574	0.012343116	0.97591898	1.0488359	-0.21869273	1.1734413	1.0301711	0.29783733	1.0257231	0.82598811	-0.29974673	1.4129761	1.0537686	0.22489354
397	1.584	1.5002675	0.10410986	-0.1166142	0.91179151	0.034935092	0.051849305	1.3711592	0.1086264	-0.13588942	0.78674797	0.087784905	0.080864857	1.3706417	0.12216477	-0.051846933	0.81048843	0.10832285	-0.0047638442	1.3081241	0.060469046	-0.090905478	0.72797009	0.082484446	0.02253751	1.3282324	0.48080505	-0.12859346	0.96212399	0.43933934	0.11493315	1.3140065	0.4686227	-0.0086245034	0.93865748	0.44170328	-0.015376607	1.1265104	0.81667131	-0.16593979	1.0385851	0.79301225	0.17100889	1.1817892	0.86121355	-0.10495739	1.1496345	0.84721462	0.14064928	0.9811286	0.92607536	-0.0064719095	1.0923202	1.336203	-0.17034977	1.1019375	1.3278307	0.18703566	1.0213099	1.3659021	0.011809849	0.98066232	1.048191	-0.21893954	1.1808558	1.0296137	0.29721801	1.0288996	0.82525881	-0.30062755	1.420002	1.0546194	0.22342083
398	1.588	1.5135736	0.10577011	-0.11513277	0.91187987	0.034919875	0.051950491	1.3841774	0.10787883	-0.13462963	0.78749134	0.088770339	0.081178528	1.3836915	0.12149817	-0.050623675	0.811339	0.10910203	-0.0045124073	1.3222308	0.058633357	-0.089695671	0.72859899	0.084069624	0.022904732	1.3333127	0.47837922	-0.12794519	0.96615587	0.43885819	0.11488422	1.3165668	0.46583309	-0.0079314336	0.94290843	0.44124399	-0.015482942	1.1330735	0.81526877	-0.16635023	1.0455534	0.79152614	0.17042291	1.1884979	0.85988069	-0.10522745	1.1557663	0.84568908	0.14047915	0.98756652	0.92488294	-0.0059287086	1.0980995	1.3349885	-0.17078217	1.1075639	1.3267151	0.18651463	1.0269751	1.3646262	0.011263941	0.9854844	1.0475244	-0.21920166	1.188153	1.029005	0.29657088	1.0321948	0.82451446	-0.30148454	1.4269458	1.0553445	0.22198541
399	1.592	1.5260778	0.10733842	-0.11356074	0.91197508	0.034904738	0.052068676	1.3965158	0.10720532	-0.13333001	0.78831303	0.089788162	0.081564055	1.3965	0.1209928	-0.049324099	0.81218834	0.10993415	-0.0041703659	1.3356139	0.057020967	-0.088508826	0.72927384	0.085735396	0.023347881	1.338541	0.47603112	-0.12729977	0.97028675	0.43837046	0.11483833	1.319635	0.4630781	-0.0072388559	0.94727933	0.44075233	-0.015568427	1.1396495	0.81384048	-0.16676466	1.0529127	0.79004626	0.16997996	1.1952854	0.85854686	-0.10555304	1.1619819	0.84420752	0.14032153	0.99455805	0.92358648	-0.0046889986	1.103921	1.3337678	-0.17124266	1.1132053	1.3255965	0.18597734	1.0326697	1.3633436	0.010694524	0.99039044	1.046837	-0.21947289	1.195359	1.0283539	0.29589198	1.0356122	0.82375096	-0.30232067	1.4338034	1.0559274	0.22057913
400	1.596	1.5377728	0.10878822	-0.11198345	0.91208301	0.034904499	0.052186315	1.408142	0.10655184	-0.13197558	0.78920357	0.090856466	0.082018047	1.4085209	0.1206536	-0.048049914	0.81304064	0.11082662	-0.0037270351	1.3481935	0.055527196	-0.08722036	0.7300007	0.08748158	0.023863746	1.343935	0.4737922	-0.12665212	0.97454489	0.43786158	0.11480087	1.3234326	0.46039686	-0.0065312333	0.95177883	0.44022177	-0.015622118	1.1462463	0.8123898	-0.16718718	1.0593535	0.7888099	0.16952333	1.2021272	0.85721639	-0.10592106	1.1682966	0.84275509	0.14017031	1.0019764	0.92213725	-0.0034263589	1.1097857	1.3325453	-0.17173542	1.1188814	1.3244755	0.18541903	1.0383973	1.3620608	0.010099875	0.99538803	1.0461269	-0.21975171	1.2024774	1.0276609	0.29517447	1.0391629	0.82296517	-0.30313453	1.4405691	1.0563519	0.21919657
401	1.6	1.5486904	0.11007821	-0.11044913	0.91219894	0.034955479	0.052283915	1.4190414	0.10587391	-0.13055527	0.79013004	0.091979732	0.082516936	1.4192581	0.12038643	-0.046866839	0.81392738	0.11177767	-0.0032152046	1.3599286	0.05408581	-0.085867031	0.73078434	0.089311112	0.024444148	1.3494932	0.47167559	-0.12600069	0.97896958	0.4373111	0.11478052	1.3276823	0.45779178	-0.0058013559	0.95641456	0.43964743	-0.015645084	1.1528778	0.81092256	-0.16762343	1.0641313	0.78792855	0.16901708	1.2089733	0.85589475	-0.10630605	1.1746898	0.84131175	0.14000195	1.009279	0.92063073	-0.002880766	1.1156972	1.3313225	-0.17225922	1.124609	1.3233486	0.18483443	1.0441663	1.3607758	0.0094830564	1.000474	1.0453894	-0.22003687	1.2094909	1.0269203	0.29441717	1.042856	0.82215604	-0.30392297	1.4472466	1.0566203	0.21784118
402	1.604	1.5589086	0.11113277	-0.10891837	0.91231817	0.03507836	0.052356552	1.4292064	0.10513738	-0.12908615	0.79108126	0.093152564	0.083043083	1.4287283	0.12008656	-0.045711923	0.81488995	0.11277953	-0.002689863	1.3708114	0.052639306	-0.084495686	0.7316323	0.091232889	0.025081283	1.3551961	0.46969221	-0.12533443	0.98357311	0.43671189	0.11477726	1.3321064	0.4552584	-0.0050359582	0.9611898	0.43902943	-0.015649178	1.1595594	0.80944609	-0.16807586	1.0677703	0.78731939	0.16876058	1.215795	0.85458801	-0.10669517	1.1811213	0.83987221	0.13976033	1.0161018	0.91921442	-0.0032452734	1.1216584	1.3300996	-0.17281171	1.1303821	1.3222154	0.18422231	1.0499805	1.3594837	0.0088429001	1.0056439	1.0446208	-0.22032705	1.2163828	1.0261229	0.29362744	1.0466924	0.82132141	-0.30468638	1.4538549	1.0567496	0.21652506
403	1.608	1.5685115	0.11185363	-0.10735157	0.91245062	0.035221421	0.052417196	1.4386407	0.10430742	-0.12760558	0.79208152	0.094374471	0.083591264	1.437395	0.1196713	-0.044465498	0.81595065	0.11383103	-0.002174654	1.3808477	0.051122263	-0.083006877	0.73255445	0.093254389	0.025768533	1.3610225	0.46785601	-0.12463447	0.98833515	0.43607027	0.1147776	1.3366315	0.45280689	-0.0042236882	0.96610361	0.43837206	-0.015642342	1.1662981	0.80796762	-0.16854477	1.0713731	0.78680186	0.16898164	1.2226011	0.85329662	-0.10709378	1.1875681	0.83844902	0.1394071	1.0226038	0.91793196	-0.0041248879	1.1276664	1.3288754	-0.17338891	1.1361868	1.3210799	0.18358669	1.0558402	1.358184	0.0081720404	1.0109025	1.0438233	-0.2206236	1.223154	1.0252653	0.29282292	1.0506719	0.82045929	-0.30543097	1.4604087	1.0567549	0.21525473
404	1.612	1.5775115	0.11215302	-0.10581757	0.91261517	0.035292842	0.05248395	1.4473715	0.10334651	-0.1261359	0.79316886	0.095656192	0.084155892	1.4456632	0.11904982	-0.043091317	0.81711007	0.11493703	-0.0016548928	1.390065	0.04951056	-0.081294889	0.73356087	0.095376629	0.026496693	1.3669507	0.46616919	-0.12389253	0.9932249	0.43539518	0.11476206	1.3412939	0.45046393	-0.003367357	0.97115365	0.43768169	-0.015625019	1.1730914	0.80649381	-0.16902501	1.0757058	0.78621446	0.16950578	1.2294143	0.8520129	-0.10751116	1.1940431	0.8370592	0.13895866	1.0290955	0.91671614	-0.005005813	1.1337151	1.3276477	-0.17398607	1.142023	1.3199448	0.18293116	1.0617448	1.356884	0.0074665666	1.0162557	1.0429983	-0.22092836	1.2298216	1.0243546	0.29202033	1.0547965	0.81957074	-0.30615973	1.4668995	1.0566374	0.21402601
405	1.616	1.5858246	0.11198612	-0.10441433	0.91281882	0.035259457	0.052567788	1.455447	0.10222494	-0.12467368	0.79437164	0.097008042	0.084733779	1.4535938	0.11817222	-0.041638556	0.81836136	0.11610119	-0.0011099083	1.3985107	0.047850664	-0.079460371	0.73466202	0.097598824	0.027255396	1.3729506	0.46461511	-0.12311226	0.9982224	0.43469223	0.11471942	1.3461268	0.44826589	-0.0024838288	0.97634099	0.43696108	-0.015594517	1.1799361	0.80503614	-0.1695047	1.0808375	0.78549538	0.16995818	1.2362528	0.8507281	-0.10795349	1.2005724	0.8357116	0.1384597	1.035653	0.91550191	-0.0057196715	1.1398043	1.3264166	-0.17460315	1.1478953	1.3188107	0.18225472	1.0676906	1.3555957	0.0067320693	1.021702	1.0421432	-0.22124048	1.2364033	1.0234001	0.29121966	1.0590646	0.81865669	-0.30686441	1.4733055	1.0563835	0.21283011
406	1.62	1.5933694	0.11135664	-0.1031194	0.91305157	0.035166672	0.052672589	1.4629202	0.1009243	-0.12321947	0.79569863	0.098428217	0.085330908	1.4610321	0.11704586	-0.04015541	0.81970054	0.11732561	-0.00053058312	1.4062216	0.046189769	-0.07769357	0.73586847	0.099923323	0.028034768	1.3789868	0.46316782	-0.12229512	1.0033361	0.43396003	0.11466583	1.3511357	0.44625339	-0.0015979678	0.98167439	0.43620563	-0.015546793	1.1868314	0.80361156	-0.16997489	1.0863429	0.78468226	0.17007923	1.2431253	0.84944036	-0.10842597	1.2071705	0.83440266	0.13795485	1.0421857	0.91428355	-0.0064052477	1.1459394	1.325185	-0.17524689	1.1537953	1.3176777	0.18155756	1.0736728	1.3543231	0.0059793222	1.0272346	1.0412592	-0.22155925	1.2428956	1.0224046	0.29041195	1.0634712	0.81771708	-0.30753613	1.4796121	1.0559761	0.21165835
407	1.624	1.6001628	0.11028943	-0.10182027	0.91329786	0.035077991	0.052804731	1.4698245	0.099429376	-0.12178824	0.79713673	0.099911932	0.085958343	1.4678314	0.11568548	-0.038662077	0.82113264	0.11861217	8.1021779e-05	1.413209	0.044504882	-0.076068376	0.73719053	0.10235241	0.028822355	1.3850232	0.46179982	-0.12143932	1.0086131	0.43319279	0.11465786	1.3563195	0.44446998	-0.00073761822	0.98717044	0.43540767	-0.015476628	1.1937773	0.8022333	-0.1704321	1.0918553	0.78383285	0.16986324	1.2500306	0.8481572	-0.10893174	1.213834	0.83312567	0.13747115	1.0486445	0.91308263	-0.0071800026	1.1521221	1.3239565	-0.17592335	1.1597129	1.3165459	0.18084402	1.0796876	1.353061	0.0052147149	1.0328495	1.0403526	-0.22188626	1.2492499	1.0213683	0.28959578	1.0680159	0.8167523	-0.30817734	1.4858238	1.0554137	0.21051653
